<?xml version="1.0" standalone="no"?>
<!DOCTYPE svg PUBLIC "-//W3C//DTD SVG 20010904//EN"
 "http://www.w3.org/TR/2001/REC-SVG-20010904/DTD/svg10.dtd">
<svg version="1.0" xmlns="http://www.w3.org/2000/svg"
 width="256.000000pt" height="256.000000pt" viewBox="0 0 256.000000 256.000000"
 preserveAspectRatio="xMidYMid meet">

<g transform="translate(0.000000,256.000000) scale(0.100000,-0.100000)"
fill="#000000" stroke="none">
<path d="M0 1280 l0 -1280 1280 0 1280 0 0 1280 0 1280 -1280 0 -1280 0 0
-1280z m1980 0 l0 -690 -695 0 -695 0 0 690 0 690 695 0 695 0 0 -690z"/>
<path d="M1087 1473 c-4 -3 -7 -93 -7 -200 l0 -193 205 0 205 0 0 200 0 200
-198 0 c-109 0 -202 -3 -205 -7z"/>
</g>
</svg>
