<svg width="136" height="136" viewBox="0 0 136 136" fill="none" xmlns="http://www.w3.org/2000/svg">
<path fill-rule="evenodd" clip-rule="evenodd" d="M36.3665 133.851C35.1833 133.713 33.9961 133.444 32.7381 133.03C30.4515 132.277 28.543 131.263 27.1362 130.465C24.0372 128.707 20.8862 126.501 17.5042 123.725C16.0275 122.512 14.589 121.239 13.2261 119.938L12.0551 118.825C11.2395 118.103 10.5426 117.294 9.97098 116.422C8.90167 114.828 8.04702 112.699 7.91773 109.911C7.83967 109.004 7.79494 108.09 7.78518 107.179C7.76323 105.194 7.89984 103.146 8.19177 101.09C8.78782 96.8915 10.1052 93.1176 11.1867 90.2992C11.2753 90.0674 11.3656 89.8357 11.4575 89.6031C11.1558 88.8322 10.8695 88.0564 10.6012 87.2791C9.04885 82.783 8.03076 78.1008 7.57376 73.3617C7.09318 68.3704 7.22979 63.328 7.98035 58.3782C8.1381 57.3365 8.32513 56.294 8.53818 55.2564C6.59714 52.4469 4.13568 48.4478 2.60692 43.681L2.57765 43.5923C2.24669 42.5767 1.47092 40.1998 1.90028 37.0878C2.05966 35.9396 2.33776 34.793 2.75248 33.5773C3.52011 31.3257 4.52763 29.4473 5.31884 28.0624C7.07935 24.9846 9.27003 21.8636 12.0177 18.5215C13.2253 17.0529 14.4865 15.6283 15.7689 14.2857L16.8886 13.1082C17.4717 12.4536 18.1141 11.8722 18.8053 11.3705C20.4454 10.1459 22.719 9.11964 25.7961 8.97734C26.8036 8.89033 27.8355 8.84479 28.8682 8.84235H28.9471C31.0117 8.84235 33.1455 9.01393 35.2898 9.35221C38.5075 9.86044 41.4569 10.7696 44.0696 11.7324C45.8114 10.9859 47.6012 10.3158 49.4016 9.73847C53.9008 8.29346 58.579 7.37865 63.3076 7.01923C68.2598 6.64192 73.3006 6.8753 78.1699 7.70717C79.3026 7.9007 80.4378 8.12839 81.5657 8.3886C85.3949 5.76125 88.9208 3.9552 92.5508 2.75415L92.6313 2.7265C93.4819 2.43051 95.2521 1.81494 97.5973 1.81494C98.1047 1.81494 98.617 1.84422 99.1188 1.90276C100.303 2.041 101.49 2.30935 102.747 2.72325C105.035 3.47706 106.943 4.49027 108.35 5.28961C111.45 7.04769 114.601 9.253 117.982 12.0292C119.458 13.2408 120.897 14.515 122.261 15.8161L123.43 16.9277C124.013 17.4441 124.535 18.0043 124.995 18.6004C126.469 20.4723 127.62 23.1322 127.642 26.8809C127.719 28.2161 127.722 29.579 127.653 30.9435C127.502 33.9278 127.052 36.7715 126.314 39.3948C125.772 41.322 125.125 43.2776 124.386 45.2244C125.824 48.8609 126.908 52.6299 127.617 56.464C129.102 64.4941 128.936 72.7998 127.158 80.7615C128.249 82.3439 129.174 83.8085 129.979 85.2258C131.376 87.6889 132.486 90.2268 133.274 92.768C133.567 93.7112 134.34 96.2044 133.831 99.3969C133.653 100.506 133.362 101.626 132.942 102.814C131.472 106.966 129.185 110.349 127.156 113.193C124.923 116.323 122.463 119.296 119.842 122.031L118.893 123.028C118.303 123.694 117.65 124.281 116.948 124.787C115.311 126.001 113.046 127.016 109.988 127.159C108.98 127.247 107.947 127.291 106.915 127.294H106.833C104.662 127.294 102.415 127.104 100.155 126.729C96.5345 126.129 93.229 125.017 90.3544 123.891C88.7915 124.512 87.1993 125.071 85.6006 125.558C81.0241 126.95 76.2768 127.797 71.4897 128.073C66.5155 128.363 61.4674 128.032 56.5924 127.102C56.0013 126.989 55.4101 126.867 54.8205 126.736C50.601 129.72 46.8125 131.716 42.9336 133L42.8539 133.026C42.0034 133.323 40.2331 133.938 37.8879 133.938C37.3805 133.938 36.8682 133.909 36.3665 133.851Z" stoke="black" stroke-width="3"/>
<path d="M37.1006 119.69L37.5888 119.582L37.5798 119.541L37.5641 119.502L37.1006 119.69ZM37.5 121.5L37.4194 121.993C37.583 122.02 37.7492 121.964 37.8632 121.844C37.9771 121.723 38.024 121.554 37.9882 121.392L37.5 121.5ZM35.5629 121.184L35.3618 121.641L35.4198 121.667L35.4823 121.677L35.5629 121.184ZM19.7646 110.246L19.4054 110.594L19.4066 110.595L19.7646 110.246ZM19.4898 109.962L18.9931 110.02L19.0127 110.188L19.1306 110.31L19.4898 109.962ZM19.4442 109.57L18.9475 109.627L18.9476 109.628L19.4442 109.57ZM19.9825 100.447L19.4944 100.339L19.4935 100.343L19.9825 100.447ZM19.9939 100.396L19.5102 100.269L19.5079 100.278L19.5058 100.287L19.9939 100.396ZM23.9451 89.7168L24.356 89.4319L23.8649 88.7234L23.4938 89.5016L23.9451 89.7168ZM36.7113 105L37.1957 105.124L37.2985 104.722L36.9229 104.547L36.7113 105ZM36.6123 119.798L37.0117 121.608L37.9882 121.392L37.5888 119.582L36.6123 119.798ZM37.5806 121.007L35.6435 120.69L35.4823 121.677L37.4194 121.993L37.5806 121.007ZM35.764 120.726C29.8612 118.133 24.5988 114.489 20.1227 109.897L19.4066 110.595C23.9728 115.279 29.3419 118.997 35.3618 121.641L35.764 120.726ZM20.1238 109.898L19.8489 109.614L19.1306 110.31L19.4054 110.594L20.1238 109.898ZM19.9864 109.904L19.9409 109.512L18.9476 109.628L18.9931 110.02L19.9864 109.904ZM19.941 109.513C19.6211 106.734 19.7973 103.718 20.4716 100.551L19.4935 100.343C18.8 103.6 18.6136 106.726 18.9475 109.627L19.941 109.513ZM20.4706 100.556L20.482 100.504L19.5058 100.287L19.4945 100.339L20.4706 100.556ZM20.4776 100.522C21.3917 97.0315 22.7074 93.4746 24.3964 89.932L23.4938 89.5016C21.7799 93.0962 20.4415 96.7124 19.5102 100.269L20.4776 100.522ZM36.2269 104.876C34.8085 110.418 34.8962 115.576 36.6371 119.877L37.5641 119.502C35.9241 115.451 35.8146 110.52 37.1957 105.124L36.2269 104.876ZM23.5342 90.0017C28.3204 96.906 31.5283 100.749 33.5492 102.872C34.56 103.933 35.2774 104.568 35.7502 104.942C35.9869 105.129 36.1633 105.252 36.2858 105.33C36.347 105.369 36.3949 105.397 36.4303 105.417C36.448 105.426 36.4625 105.434 36.4741 105.44C36.4798 105.443 36.4849 105.445 36.4891 105.448C36.4913 105.449 36.4932 105.45 36.495 105.45C36.4959 105.451 36.4967 105.451 36.4975 105.452C36.4979 105.452 36.4985 105.452 36.4987 105.452C36.4992 105.452 36.4998 105.453 36.7113 105C36.9229 104.547 36.9234 104.547 36.9239 104.547C36.9241 104.547 36.9245 104.547 36.9248 104.548C36.9254 104.548 36.926 104.548 36.9265 104.548C36.9275 104.549 36.9282 104.549 36.9288 104.549C36.9299 104.55 36.9302 104.55 36.9296 104.55C36.9284 104.549 36.9237 104.547 36.9156 104.542C36.8992 104.533 36.8688 104.516 36.8236 104.487C36.7331 104.429 36.584 104.327 36.3703 104.158C35.9424 103.82 35.2598 103.218 34.2734 102.182C32.3 100.109 29.1247 96.3108 24.356 89.4319L23.5342 90.0017Z" fill="black"/>
<path d="M98.3837 16.0585L98.8473 15.8709L98.8432 15.8612L98.3837 16.0585ZM97.5 14L97.6137 13.5131C97.43 13.4702 97.2379 13.5343 97.1167 13.6789C96.9956 13.8235 96.9661 14.0239 97.0406 14.1972L97.5 14ZM99.9214 14.5655L100.123 14.1077L100.08 14.0891L100.035 14.0786L99.9214 14.5655ZM115.72 25.5026L116.078 25.1543L116.078 25.1536L115.72 25.5026ZM115.995 25.7864L116.492 25.7287L116.472 25.5599L116.354 25.4381L115.995 25.7864ZM116.041 26.1784L116.538 26.1212L116.538 26.1207L116.041 26.1784ZM115.502 35.3013L115.013 35.1971L115.012 35.2018L115.502 35.3013ZM115.491 35.3534L115.975 35.4801L115.978 35.4666L115.981 35.4529L115.491 35.3534ZM112 45.0455H111.5L112.455 45.2534L112 45.0455ZM99 29.8075L98.5123 29.6971L98.425 30.0827L98.7802 30.2565L99 29.8075ZM98.8432 15.8612L97.9594 13.8028L97.0406 14.1972L97.9243 16.2557L98.8432 15.8612ZM97.3863 14.4869L99.8077 15.0524L100.035 14.0786L97.6137 13.5131L97.3863 14.4869ZM99.7204 15.0233C105.623 17.616 110.885 21.2596 115.362 25.8517L116.078 25.1536C111.511 20.4691 106.142 16.7518 100.123 14.1077L99.7204 15.0233ZM115.361 25.851L115.637 26.1348L116.354 25.4381L116.078 25.1543L115.361 25.851ZM115.499 25.8441L115.544 26.2361L116.538 26.1207L116.492 25.7287L115.499 25.8441ZM115.544 26.2355C115.864 29.0156 115.688 32.0304 115.013 35.1971L115.991 35.4056C116.685 32.1483 116.872 29.0236 116.538 26.1212L115.544 26.2355ZM115.012 35.2018L115.001 35.2539L115.981 35.4529L115.992 35.4009L115.012 35.2018ZM115.008 35.2266C114.177 38.3959 113.016 41.6197 111.545 44.8377L112.455 45.2534C113.948 41.9871 115.129 38.7092 115.975 35.4801L115.008 35.2266ZM99.4877 29.9179C100.66 24.7392 100.488 19.924 98.8472 15.8709L97.9203 16.2461C99.4657 20.064 99.6521 24.6626 98.5123 29.6971L99.4877 29.9179ZM112.5 45.0455C112.497 44.9938 112.484 44.9196 112.477 44.8966C112.473 44.8837 112.466 44.8629 112.462 44.8546C112.456 44.8394 112.45 44.8276 112.448 44.8228C112.442 44.8116 112.437 44.8019 112.434 44.7966C112.428 44.7845 112.42 44.7707 112.412 44.7569C112.396 44.7286 112.373 44.6895 112.344 44.6411C112.286 44.5438 112.202 44.4037 112.093 44.2265C111.875 43.8718 111.559 43.366 111.162 42.7525C110.369 41.5259 109.254 39.8661 107.965 38.1219C106.676 36.379 105.21 34.5449 103.714 32.9732C102.225 31.4095 100.676 30.0712 99.2198 29.3584L98.7802 30.2565C100.074 30.89 101.525 32.1239 102.989 33.6627C104.446 35.1934 105.886 36.9919 107.16 38.7163C108.434 40.4394 109.537 42.0814 110.322 43.2955C110.715 43.9024 111.027 44.4016 111.241 44.7498C111.348 44.924 111.43 45.0597 111.485 45.1519C111.512 45.1982 111.532 45.2322 111.544 45.254C111.551 45.2653 111.554 45.2708 111.555 45.2721C111.555 45.2735 111.553 45.269 111.549 45.2616C111.548 45.2587 111.543 45.2483 111.537 45.2342C111.534 45.2265 111.527 45.2061 111.522 45.1936C111.516 45.171 111.503 45.097 111.5 45.0455H112.5Z" fill="black"/>
<path d="M119.767 97.5806L119.641 97.0967L119.61 97.1049L119.58 97.1171L119.767 97.5806ZM122 97L122.464 97.1857C122.534 97.0106 122.5 96.8109 122.375 96.6694C122.25 96.5279 122.057 96.4686 121.874 96.5161L122 97ZM121 99.5L121.458 99.7012L121.461 99.6935L121.464 99.6857L121 99.5ZM110.323 114.917L110.67 115.276L110.672 115.275L110.323 114.917ZM110.038 115.191L110.096 115.688L110.264 115.669L110.386 115.551L110.038 115.191ZM109.646 115.237L109.704 115.734L109.704 115.734L109.646 115.237ZM100.524 114.699L100.417 115.188L100.42 115.188L100.524 114.699ZM100.471 114.688L100.345 115.172L100.355 115.174L100.365 115.176L100.471 114.688ZM90 110.835L89.7605 110.396L88.8976 110.867L89.7863 111.287L90 110.835ZM105.628 98.1061L105.744 97.6198L105.347 97.5249L105.174 97.8953L105.628 98.1061ZM119.893 98.0645L122.126 97.4839L121.874 96.5161L119.641 97.0967L119.893 98.0645ZM121.536 96.8143L120.536 99.3143L121.464 99.6857L122.464 97.1857L121.536 96.8143ZM120.542 99.2988C117.949 105.2 114.565 110.081 109.974 114.559L110.672 115.275C115.356 110.708 118.813 105.72 121.458 99.7012L120.542 99.2988ZM109.976 114.557L109.691 114.832L110.386 115.551L110.67 115.276L109.976 114.557ZM109.981 114.695L109.589 114.74L109.704 115.734L110.096 115.688L109.981 114.695ZM109.589 114.74C106.81 115.06 103.795 114.884 100.627 114.21L100.42 115.188C103.677 115.881 106.802 116.068 109.704 115.734L109.589 114.74ZM100.63 114.211L100.578 114.2L100.365 115.176L100.417 115.188L100.63 114.211ZM100.598 114.204C97.1753 113.307 93.6878 112.025 90.2137 110.383L89.7863 111.287C93.3119 112.954 96.8575 114.258 100.345 115.172L100.598 114.204ZM105.512 98.5924C110.841 99.8648 115.798 99.7263 119.955 98.044L119.58 97.1171C115.664 98.7018 110.928 98.8575 105.744 97.6198L105.512 98.5924ZM90.2395 111.274C92.7671 109.895 96.2899 107.572 99.3862 105.154C100.935 103.945 102.385 102.705 103.555 101.543C104.714 100.39 105.635 99.276 106.081 98.3169L105.174 97.8953C104.806 98.6864 103.992 99.6975 102.85 100.833C101.718 101.959 100.3 103.172 98.7708 104.366C95.7102 106.755 92.2329 109.047 89.7605 110.396L90.2395 111.274Z" fill="black"/>
<path d="M16.0142 38.159L15.8266 37.6955L15.8216 37.6976L16.0142 38.159ZM14 39L13.5116 38.893C13.4717 39.0751 13.5364 39.2644 13.6796 39.3839C13.8228 39.5034 14.0206 39.5332 14.1926 39.4614L14 39ZM14.5212 36.6213L14.0635 36.4202L14.0435 36.4657L14.0328 36.5143L14.5212 36.6213ZM25.4584 20.823L25.1105 20.4639L25.1093 20.465L25.4584 20.823ZM25.7422 20.5482L25.6845 20.0515L25.5161 20.0711L25.3943 20.189L25.7422 20.5482ZM26.1341 20.5026L26.077 20.0059L26.0764 20.006L26.1341 20.5026ZM35.2579 21.0401L35.372 20.5532L35.3619 20.5511L35.2579 21.0401ZM35.3099 21.0523L35.4366 20.5685L35.424 20.5655L35.3099 21.0523ZM44.1046 24.1407L44.3776 24.5595L45.152 24.0546L44.3056 23.6829L44.1046 24.1407ZM29.5 37.4842L29.3935 37.9727L29.7555 38.0516L29.9363 37.7283L29.5 37.4842ZM15.8216 37.6976L13.8074 38.5386L14.1926 39.4614L16.2069 38.6204L15.8216 37.6976ZM14.4884 39.107L15.0097 36.7283L14.0328 36.5143L13.5116 38.893L14.4884 39.107ZM14.979 36.8224C17.5717 30.9204 21.2161 25.658 25.8074 21.181L25.1093 20.465C20.4256 25.0321 16.7076 30.4011 14.0635 36.4202L14.979 36.8224ZM25.8062 21.1822L26.09 20.9073L25.3943 20.189L25.1105 20.4639L25.8062 21.1822ZM25.7999 21.0448L26.1918 20.9993L26.0764 20.006L25.6845 20.0515L25.7999 21.0448ZM26.1913 20.9994C28.9713 20.6795 31.9862 20.8557 35.1539 21.5292L35.3619 20.5511C32.1039 19.8584 28.9794 19.672 26.077 20.0059L26.1913 20.9994ZM35.1438 21.527L35.1958 21.5391L35.424 20.5655L35.372 20.5533L35.1438 21.527ZM35.1833 21.536C38.0602 22.2893 40.982 23.3154 43.9035 24.5985L44.3056 23.6829C41.3395 22.3801 38.3679 21.3361 35.4366 20.5686L35.1833 21.536ZM29.6065 36.9956C24.5298 35.889 19.8104 36.0831 15.8266 37.6955L16.2018 38.6225C19.9544 37.1037 24.4605 36.8974 29.3935 37.9727L29.6065 36.9956ZM43.8315 23.7219C41.9427 24.9533 38.9472 27.0987 36.0826 29.5433C33.2308 31.9771 30.4565 34.7507 29.0637 37.24L29.9363 37.7283C31.2363 35.405 33.8911 32.7282 36.7318 30.304C39.5597 27.8906 42.5201 25.7706 44.3776 24.5595L43.8315 23.7219Z" fill="black"/>
<path fill-rule="evenodd" clip-rule="evenodd" d="M117.123 67.5103C117.123 94.6628 95.1117 116.673 67.96 116.673C40.8074 116.673 18.7965 94.6628 18.7965 67.5103C18.7965 40.3585 40.8074 18.3477 67.96 18.3477C95.1117 18.3477 117.123 40.3585 117.123 67.5103Z" stoke="black" stroke-width="2"/>
<path fill-rule="evenodd" clip-rule="evenodd" d="M49.9759 50.1981C47.1127 48.9043 45.0448 47.6008 42.8948 46.0655C39.6112 43.8212 36.6204 41.2678 34.0857 38.621C27.9186 32.3319 25.1031 25.7498 26 20.5L23.7446 22.5918C19.26 27.3106 13.3084 35.5626 13.2564 39.1528L13.3662 39.5317C14.1622 42.2778 15.5162 45.0385 17.3873 47.7374L17.4182 47.7813C19.8317 51.6984 24.6521 58.0899 41.7263 65.5824L38.707 71.2559L61.7498 65.066L53.4489 43.7252L49.9759 50.1981Z" fill="black"/>
<path fill-rule="evenodd" clip-rule="evenodd" d="M85.8055 85.9367C88.6695 87.2305 90.7366 88.534 92.8866 90.0693C96.171 92.3136 99.161 94.8662 101.696 97.5138C107.864 103.802 110.397 109.752 109.5 115L112.038 113.543C116.522 108.824 122.473 100.572 122.526 96.982L122.415 96.6031C121.619 93.857 120.266 91.0955 118.394 88.3966L118.363 88.3535C115.951 84.4365 111.129 78.0449 94.0551 70.5524L97.0744 64.8789L74.0316 71.0688L82.3333 92.4096L85.8055 85.9367Z" fill="black"/>
<path fill-rule="evenodd" clip-rule="evenodd" d="M86.3452 50.0211C87.6381 47.1571 88.9425 45.09 90.4777 42.94C92.7213 39.6564 95.2754 36.6656 97.9215 34.1309C104.211 27.963 110.75 25.1031 116 26L113.951 23.789C109.233 19.3044 100.981 13.3536 97.3913 13.3008L97.0115 13.4114C94.2647 14.2075 91.5048 15.5606 88.8058 17.4325L88.7619 17.4634C84.8449 19.8769 78.4534 24.6974 70.9608 41.7715L65.2874 38.7522L71.4772 61.795L92.818 53.4933L86.3452 50.0211Z" fill="black"/>
<path fill-rule="evenodd" clip-rule="evenodd" d="M49.1389 85.7295C47.8452 88.5934 46.5417 90.6605 45.0064 92.8097C42.762 96.0941 40.2087 99.085 37.5626 101.62C31.2728 107.787 24.7498 110.397 19.5 109.5L21.5334 111.961C26.2514 116.445 34.5035 122.397 38.0928 122.449L38.4726 122.339C41.2195 121.543 43.9794 120.19 46.6783 118.317L46.7222 118.287C50.6392 115.874 57.0307 111.053 64.5241 93.9791L70.1968 96.9984L64.0069 73.9556L42.6661 82.2564L49.1389 85.7295Z" fill="black"/>
</svg>
